<mxfile host="app.diagrams.net" modified="2024-01-08T07:24:39.731Z" agent="Mozilla/5.0 (X11; Linux x86_64; rv:109.0) Gecko/20100101 Firefox/117.0" etag="W5OuPYMoSw0dXJtlh2sV" version="22.1.16" type="github">
  <diagram name="Page-1" id="s8racsaNOKtdu6uC_iaP">
    <mxGraphModel dx="2074" dy="1154" grid="1" gridSize="10" guides="1" tooltips="1" connect="1" arrows="1" fold="1" page="1" pageScale="1" pageWidth="850" pageHeight="1100" math="0" shadow="0">
      <root>
        <mxCell id="0" />
        <mxCell id="1" parent="0" />
        <mxCell id="J5LGavx4zM9nopEYlz9q-4" style="edgeStyle=orthogonalEdgeStyle;rounded=0;orthogonalLoop=1;jettySize=auto;html=1;entryX=0;entryY=0.5;entryDx=0;entryDy=0;" edge="1" parent="1" source="J5LGavx4zM9nopEYlz9q-1" target="J5LGavx4zM9nopEYlz9q-3">
          <mxGeometry relative="1" as="geometry" />
        </mxCell>
        <mxCell id="J5LGavx4zM9nopEYlz9q-6" value="" style="edgeStyle=orthogonalEdgeStyle;rounded=0;orthogonalLoop=1;jettySize=auto;html=1;" edge="1" parent="1" source="J5LGavx4zM9nopEYlz9q-1" target="J5LGavx4zM9nopEYlz9q-2">
          <mxGeometry relative="1" as="geometry" />
        </mxCell>
        <mxCell id="J5LGavx4zM9nopEYlz9q-1" value="asar_focus" style="whiteSpace=wrap;html=1;aspect=fixed;" vertex="1" parent="1">
          <mxGeometry x="160" y="300" width="80" height="80" as="geometry" />
        </mxCell>
        <mxCell id="J5LGavx4zM9nopEYlz9q-2" value="OS" style="whiteSpace=wrap;html=1;aspect=fixed;" vertex="1" parent="1">
          <mxGeometry x="280" y="300" width="80" height="80" as="geometry" />
        </mxCell>
        <mxCell id="J5LGavx4zM9nopEYlz9q-8" style="edgeStyle=orthogonalEdgeStyle;rounded=0;orthogonalLoop=1;jettySize=auto;html=1;exitX=1;exitY=0.5;exitDx=0;exitDy=0;" edge="1" parent="1" source="J5LGavx4zM9nopEYlz9q-3" target="J5LGavx4zM9nopEYlz9q-2">
          <mxGeometry relative="1" as="geometry" />
        </mxCell>
        <mxCell id="J5LGavx4zM9nopEYlz9q-3" value="CUDA" style="whiteSpace=wrap;html=1;aspect=fixed;" vertex="1" parent="1">
          <mxGeometry x="220" y="400" width="80" height="80" as="geometry" />
        </mxCell>
      </root>
    </mxGraphModel>
  </diagram>
</mxfile>
